# xmcd
#
# Track frame offsets:
#	150
#	17883
#	35616
#	50957
#	63493
#	80765
#	99798
#	115096
#	129697
#	151748
#	167667
#	183036
#	201271
#	202365
#	203086
#	203777
#	204593
#	205415
#	206239
#	207114
#	207868
#	208795
#	209705
#	210450
#	211127
#	211822
#	212612
#	213350
#	214077
#	214845
#	215650
#	216540
#	217290
#	217980
#	218680
#	219485
#	220245
#	221020
#	221700
#
# Disc length: 2964 seconds
#
# Revision: 1
# Processed by: cddbd v1.5.2PL0 Copyright (c) Steve Scherf et al.
# Submitted via: audiograbber 1.83.01
#
DISCID=a70b9227
DTITLE=Various Artist - CDX Volume 638 (August 22, 2016)
DYEAR=2016
DGENRE=Country
TTITLE0=Keith Urban - Blue Ain't Your Color
TTITLE1=Band Perrry - Comeback Kid
TTITLE2=Vince Gill - Me And My Girl
TTITLE3=Kevin Mac - #Winning
TTITLE4=Larry Gatlin and The Gatlin Brothers - Stand Up And Say So 
TTITLE5=Daryle Singletary - We're Not Going to Hell for Having a Hell of a Tim
TTITLE6=Andy Ross (featuring Little Texas) - Back on the Backroads (Radio Edit)
TTITLE7=Rick Trevino - Cowboys Like Me (Radio Edit)
TTITLE8=Rick Trevino - Cowboys Like Me
TTITLE9=Jeremy Bowman - Like A Song On The Radio
TTITLE10=Levi Blom - Rivers and Roads
TTITLE11=Gracie Metheny - Unspeakable
TTITLE12=Denny Strickland - Artist Liner - My New Single
TTITLE13=Denny Strickland - Artist Liner - Today's Best Country
TTITLE14=Denny Strickland - Artist Liner - Kickin' Country
TTITLE15=Denny Strickland - Artist Liner - Hometown Country
TTITLE16=Denny Strickland - Artist Liner - Super Country
TTITLE17=Denny Strickland - Artist Liner - Today's Hot Country
TTITLE18=Denny Strickland - Artist Liner - Best in Today's Country
TTITLE19=Denny Strickland - Artist Liner - More of the Country
TTITLE20=Denny Strickland - Artist Liner - Howlin' Country
TTITLE21=Gracie Metheny - Artist Liner - My New Single
TTITLE22=Gracie Metheny - Artist Liner - Today's Best Country
TTITLE23=Gracie Metheny - Artist Liner - Kickin' Country
TTITLE24=Gracie Metheny - Artist Liner - Hometown Country
TTITLE25=Gracie Metheny - Artist Liner - Super Country
TTITLE26=Gracie Metheny - Artist Liner - Today's Hot Country
TTITLE27=Gracie Metheny - Artist Liner - Best in Today's Country
TTITLE28=Gracie Metheny - Artist Liner - More of the Country You Love
TTITLE29=Gracie Metheny - Artist Liner - Howlin' Country
TTITLE30=Kaylyn Pace - Artist Liner - My New Single
TTITLE31=Kaylyn Pace - Artist Liner - Today's Best Country
TTITLE32=Kaylyn Pace - Artist Liner - Kickin' Country
TTITLE33=Kaylyn Pace - Artist Liner - Hometown Country
TTITLE34=Kaylyn Pace - Artist Liner - Super Country
TTITLE35=Kaylyn Pace - Artist Liner - Today's Hot Country
TTITLE36=Kaylyn Pace - Artist Liner - Best in Today's Country
TTITLE37=Kaylyn Pace - Artist Liner - More of the Country You Love
TTITLE38=Kaylyn Pace - Artist Liner - Howlin' Country
EXTD=
EXTT0=
EXTT1=
EXTT2=
EXTT3=
EXTT4=
EXTT5=
EXTT6=
EXTT7=
EXTT8=
EXTT9=
EXTT10=
EXTT11=
EXTT12=
EXTT13=
EXTT14=
EXTT15=
EXTT16=
EXTT17=
EXTT18=
EXTT19=
EXTT20=
EXTT21=
EXTT22=
EXTT23=
EXTT24=
EXTT25=
EXTT26=
EXTT27=
EXTT28=
EXTT29=
EXTT30=
EXTT31=
EXTT32=
EXTT33=
EXTT34=
EXTT35=
EXTT36=
EXTT37=
EXTT38=
PLAYORDER=
